solid OpenSCAD_Model
  facet normal 0 0 1
    outer loop
      vertex 16.009999999999998 2 3.2999999970197678
      vertex 17.5 2 3.2999999970197678
      vertex 17.5 2.8 3.2999999970197678
    endloop
  endfacet
  facet normal 0 0 1
    outer loop
      vertex 16.009999999999998 2 3.2999999970197678
      vertex 17.5 2.8 3.2999999970197678
      vertex 16.009999999999998 2.8 3.2999999970197678
    endloop
  endfacet
  facet normal 0 0 1
    outer loop
      vertex 16.009999999999998 3.5999999999999996 3.2999999970197678
      vertex 23 3.5999999999999996 3.2999999970197678
      vertex 16.009999999999998 6.315470053837925 3.2999999970197678
    endloop
  endfacet
  facet normal 0 -0.8660253980222021 -0.5000000099804862
    outer loop
      vertex 15.99 6.315470054745674 3.7999999970197678
      vertex 16.009999999999998 6.315470053837925 3.799999998592036
      vertex 15.99 6.315470053837925 3.799999998592036
    endloop
  endfacet
  facet normal 1 0 0
    outer loop
      vertex 15.99 6.315470054745674 3.7999999970197678
      vertex 15.99 6.315470053837925 3.799999998592036
      vertex 15.99 6.315470054745674 3.2999999970197678
    endloop
  endfacet
  facet normal 1 0 0
    outer loop
      vertex 15.99 6.315470053837925 3.799999998592036
      vertex 15.99 6.315470053837925 3.2999999970197678
      vertex 15.99 6.315470054745674 3.2999999970197678
    endloop
  endfacet
  facet normal 0 0 1
    outer loop
      vertex 15.99 6.315470054745674 3.2999999970197678
      vertex 15.99 6.315470053837925 3.2999999970197678
      vertex 16.009999999999998 6.315470053837925 3.2999999970197678
    endloop
  endfacet
  facet normal 0 0 1
    outer loop
      vertex 23.009999997913837 2.8 3.2999999970197678
      vertex 23.009999997913837 0 3.2999999970197678
      vertex 32.26 0 3.2999999970197678
    endloop
  endfacet
  facet normal 0 0 1
    outer loop
      vertex 23 2.8 3.2999999970197678
      vertex 23.009999997913837 2.8 3.2999999970197678
      vertex 23 3.5999999999999996 3.2999999970197678
    endloop
  endfacet
  facet normal 0 0 1
    outer loop
      vertex 23.009999997913837 2.8 3.2999999970197678
      vertex 32.26 0 3.2999999970197678
      vertex 32.26 6.315470054745674 3.2999999970197678
    endloop
  endfacet
  facet normal -1 0 0
    outer loop
      vertex 32.26 5.622649729251862 5.5
      vertex 32.26 5.622649729251862 5
      vertex 32.26 0 5.5
    endloop
  endfacet
  facet normal -1 0 0
    outer loop
      vertex 32.26 5.622649729251862 5
      vertex 32.26 6.315470054745674 3.7999999970197678
      vertex 32.26 0 5.5
    endloop
  endfacet
  facet normal -1 0 0
    outer loop
      vertex 32.26 6.315470054745674 3.2999999970197678
      vertex 32.26 0 3.2999999970197678
      vertex 32.26 0 5.5
    endloop
  endfacet
  facet normal 0 -1 0
    outer loop
      vertex 16.009999999999998 5.622649729251862 5.5
      vertex 16.009999999999998 5.622649729251862 5
      vertex 32.26 5.622649729251862 5
    endloop
  endfacet
  facet normal 0 -1 0
    outer loop
      vertex 16.009999999999998 5.622649729251862 5.5
      vertex 32.26 5.622649729251862 5
      vertex 32.26 5.622649729251862 5.5
    endloop
  endfacet
  facet normal 0 -0.8660254035514312 -0.5000000004035807
    outer loop
      vertex 16.009999999999998 5.622649729251862 5
      vertex 32.26 6.315470054745674 3.7999999970197678
      vertex 32.26 5.622649729251862 5
    endloop
  endfacet
  facet normal 0 -0.8660254035514311 -0.5000000004035807
    outer loop
      vertex 16.009999999999998 5.622649729251862 5
      vertex 16.009999999999998 6.315470053837925 3.799999998592036
      vertex 32.26 6.315470054745674 3.7999999970197678
    endloop
  endfacet
  facet normal 0 0 1
    outer loop
      vertex 23.009999997913837 2.8 3.2999999970197678
      vertex 32.26 6.315470054745674 3.2999999970197678
      vertex 23 3.5999999999999996 3.2999999970197678
    endloop
  endfacet
  facet normal 0 0 1
    outer loop
      vertex 16.009999999999998 6.315470053837925 3.2999999970197678
      vertex 23 3.5999999999999996 3.2999999970197678
      vertex 32.26 6.315470054745674 3.2999999970197678
    endloop
  endfacet
  facet normal 0 -0.8660253980222022 -0.5000000099804862
    outer loop
      vertex 15.99 6.315470054745674 3.7999999970197678
      vertex 32.26 6.315470054745674 3.7999999970197678
      vertex 16.009999999999998 6.315470053837925 3.799999998592036
    endloop
  endfacet
  facet normal 0 -1 0
    outer loop
      vertex 15.99 6.315470054745674 3.7999999970197678
      vertex 15.99 6.315470054745674 3.2999999970197678
      vertex 32.26 6.315470054745674 3.2999999970197678
    endloop
  endfacet
  facet normal 0 0 1
    outer loop
      vertex 15.99 6.315470054745674 3.2999999970197678
      vertex 16.009999999999998 6.315470053837925 3.2999999970197678
      vertex 32.26 6.315470054745674 3.2999999970197678
    endloop
  endfacet
  facet normal 0 -1 0
    outer loop
      vertex 15.99 6.315470054745674 3.7999999970197678
      vertex 32.26 6.315470054745674 3.2999999970197678
      vertex 32.26 6.315470054745674 3.7999999970197678
    endloop
  endfacet
  facet normal -1 0 0
    outer loop
      vertex 32.26 6.315470054745674 3.7999999970197678
      vertex 32.26 6.315470054745674 3.2999999970197678
      vertex 32.26 0 5.5
    endloop
  endfacet
  facet normal 0 0 1
    outer loop
      vertex 0 6.315470053837925 3.2899999999999996
      vertex 0 0 3.2899999999999996
      vertex 15.2 0 3.2899999999999996
    endloop
  endfacet
  facet normal 0 0 1
    outer loop
      vertex 0 6.315470053837925 3.2899999999999996
      vertex 15.2 0 3.2899999999999996
      vertex 15.2 3.5999999999999996 3.2899999999999996
    endloop
  endfacet
  facet normal 0 0 1
    outer loop
      vertex 0 6.315470053837925 3.2899999999999996
      vertex 15.2 3.5999999999999996 3.2899999999999996
      vertex 16.009999999999998 6.315470053837925 3.2899999999999996
    endloop
  endfacet
  facet normal 0 -1 0
    outer loop
      vertex 0 6.315470053837925 5.5
      vertex 0 6.315470053837925 3.2899999999999996
      vertex 15.99 6.315470053837925 3.2999999970197678
    endloop
  endfacet
  facet normal -1 0 0
    outer loop
      vertex 16.009999999999998 5.622649729251862 5.5
      vertex 16.009999999999998 6.315470053837925 5.5
      vertex 16.009999999999998 5.622649729251862 5
    endloop
  endfacet
  facet normal 0 -1 0
    outer loop
      vertex 0 6.315470053837925 5.5
      vertex 15.99 6.315470053837925 3.799999998592036
      vertex 16.009999999999998 6.315470053837925 5.5
    endloop
  endfacet
  facet normal 0 -1 0
    outer loop
      vertex 0 6.315470053837925 5.5
      vertex 15.99 6.315470053837925 3.2999999970197678
      vertex 15.99 6.315470053837925 3.799999998592036
    endloop
  endfacet
  facet normal -1 0 0
    outer loop
      vertex 16.009999999999998 5.622649729251862 5
      vertex 16.009999999999998 6.315470053837925 5.5
      vertex 16.009999999999998 6.315470053837925 3.799999998592036
    endloop
  endfacet
  facet normal 0 -1 0
    outer loop
      vertex 16.009999999999998 6.315470053837925 5.5
      vertex 15.99 6.315470053837925 3.799999998592036
      vertex 16.009999999999998 6.315470053837925 3.799999998592036
    endloop
  endfacet
  facet normal 0 0 1
    outer loop
      vertex 15.2 3.5999999999999996 3.2899999999999996
      vertex 15.99 3.5999999999999996 3.2899999999999996
      vertex 16.009999999999998 6.315470053837925 3.2899999999999996
    endloop
  endfacet
  facet normal -1 0 0
    outer loop
      vertex 16.009999999999998 3.5999999999999996 3.2999999970197678
      vertex 16.009999999999998 6.315470053837925 3.2999999970197678
      vertex 16.009999999999998 3.5999999999999996 3.2899999999999996
    endloop
  endfacet
  facet normal 0 0 1
    outer loop
      vertex 15.99 3.5999999999999996 3.2899999999999996
      vertex 16.009999999999998 3.5999999999999996 3.2899999999999996
      vertex 16.009999999999998 6.315470053837925 3.2899999999999996
    endloop
  endfacet
  facet normal -1 0 0
    outer loop
      vertex 16.009999999999998 3.5999999999999996 3.2899999999999996
      vertex 16.009999999999998 6.315470053837925 3.2999999970197678
      vertex 16.009999999999998 6.315470053837925 3.2899999999999996
    endloop
  endfacet
  facet normal 0 -1 0
    outer loop
      vertex 0 6.315470053837925 3.2899999999999996
      vertex 16.009999999999998 6.315470053837925 3.2899999999999996
      vertex 15.99 6.315470053837925 3.2999999970197678
    endloop
  endfacet
  facet normal 0 -1 0
    outer loop
      vertex 15.99 6.315470053837925 3.2999999970197678
      vertex 16.009999999999998 6.315470053837925 3.2899999999999996
      vertex 16.009999999999998 6.315470053837925 3.2999999970197678
    endloop
  endfacet
  facet normal 0 0 1
    outer loop
      vertex 17 2 3.7999999970197678
      vertex 17 0 3.7999999970197678
      vertex 17.5 0 3.7999999970197678
    endloop
  endfacet
  facet normal -0.4472135954999586 0 0.8944271909999155
    outer loop
      vertex 16.000000005960466 2 3.3
      vertex 16.000000005960466 0 3.3
      vertex 17 0 3.7999999970197678
    endloop
  endfacet
  facet normal 1 0 0
    outer loop
      vertex 17.5 2 3.7999999970197678
      vertex 17.5 0 3.7999999970197678
      vertex 17.5 0 3.2999999970197678
    endloop
  endfacet
  facet normal 0 0 1
    outer loop
      vertex 17 2 3.7999999970197678
      vertex 17.5 0 3.7999999970197678
      vertex 17.5 2 3.7999999970197678
    endloop
  endfacet
  facet normal -0.4472135954999586 0 0.8944271909999155
    outer loop
      vertex 17 2 3.7999999970197678
      vertex 16.000000005960466 2 3.3
      vertex 17 0 3.7999999970197678
    endloop
  endfacet
  facet normal 1 0 0
    outer loop
      vertex 17.5 2 3.7999999970197678
      vertex 17.5 0 3.2999999970197678
      vertex 17.5 2 3.2999999970197678
    endloop
  endfacet
  facet normal 0 1 0
    outer loop
      vertex 17 2 3.7999999970197678
      vertex 17.5 2 3.7999999970197678
      vertex 16.009999999999998 2 3.3
    endloop
  endfacet
  facet normal 0 1 0
    outer loop
      vertex 17 2 3.7999999970197678
      vertex 16.009999999999998 2 3.3
      vertex 16.000000005960466 2 3.3
    endloop
  endfacet
  facet normal 0 1 0
    outer loop
      vertex 17.5 2 3.7999999970197678
      vertex 16.009999999999998 2 3.2999999970197678
      vertex 16.009999999999998 2 3.3
    endloop
  endfacet
  facet normal 0 1 0
    outer loop
      vertex 17.5 2 3.7999999970197678
      vertex 17.5 2 3.2999999970197678
      vertex 16.009999999999998 2 3.2999999970197678
    endloop
  endfacet
  facet normal 0.3088067537522531 0 0.9511248019250658
    outer loop
      vertex 17.5 2 3.2999999970197678
      vertex 17.5 0 3.2999999970197678
      vertex 21.350000001490116 0 2.0499999970197678
    endloop
  endfacet
  facet normal 0.30880675375225297 0 0.9511248019250655
    outer loop
      vertex 17.5 2 3.2999999970197678
      vertex 21.350000001490116 2.8 2.0499999970197678
      vertex 17.5 2.8 3.2999999970197678
    endloop
  endfacet
  facet normal 0.308806753752253 0 0.9511248019250657
    outer loop
      vertex 17.5 2 3.2999999970197678
      vertex 21.350000001490116 0 2.0499999970197678
      vertex 21.350000001490116 2.8 2.0499999970197678
    endloop
  endfacet
  facet normal -1 0 0
    outer loop
      vertex 23.009999997913837 2.8 2.875
      vertex 23.009999997913837 0 2.875
      vertex 23.009999997913837 0 3.2999999970197678
    endloop
  endfacet
  facet normal -1 0 0
    outer loop
      vertex 23.009999997913837 2.8 3.2999999970197678
      vertex 23.009999997913837 2.8 2.875
      vertex 23.009999997913837 0 3.2999999970197678
    endloop
  endfacet
  facet normal -0.7028343499645149 0 0.7113535523984947
    outer loop
      vertex 23.009999997913837 2.8 2.875
      vertex 23 2.8 2.8651197625151084
      vertex 23.009999997913837 0 2.875
    endloop
  endfacet
  facet normal 0 -1 0
    outer loop
      vertex 23 2.8 3.2999999970197678
      vertex 23.009999997913837 2.8 2.875
      vertex 23.009999997913837 2.8 3.2999999970197678
    endloop
  endfacet
  facet normal 0 -1 0
    outer loop
      vertex 23 2.8 3.2999999970197678
      vertex 23 2.8 2.8651197625151084
      vertex 23.009999997913837 2.8 2.875
    endloop
  endfacet
  facet normal -0.7028343499645173 0 0.7113535523984922
    outer loop
      vertex 22.174999997019768 2.8 2.0499999970197678
      vertex 22.174999997019768 0 2.0499999970197678
      vertex 23.009999997913837 0 2.875
    endloop
  endfacet
  facet normal -0.7028343499645173 -1.7628595751535017e-17 0.7113535523984922
    outer loop
      vertex 23 2.8 2.8651197625151084
      vertex 22.174999997019768 2.8 2.0499999970197678
      vertex 23.009999997913837 0 2.875
    endloop
  endfacet
  facet normal 0 0 1
    outer loop
      vertex 21.350000001490116 2.8 2.0499999970197678
      vertex 21.350000001490116 0 2.0499999970197678
      vertex 22.174999997019768 0 2.0499999970197678
    endloop
  endfacet
  facet normal 0 0 1
    outer loop
      vertex 21.350000001490116 2.8 2.0499999970197678
      vertex 22.174999997019768 0 2.0499999970197678
      vertex 22.174999997019768 2.8 2.0499999970197678
    endloop
  endfacet
  facet normal 0.308806753752253 0 -0.9511248019250657
    outer loop
      vertex 21.350000001490116 2.8 1.25
      vertex 21.350000001490116 0 1.25
      vertex 17.5 0 0
    endloop
  endfacet
  facet normal 0.308806753752253 0 -0.9511248019250657
    outer loop
      vertex 17.5 2.8 0
      vertex 21.350000001490116 2.8 1.25
      vertex 17.5 0 0
    endloop
  endfacet
  facet normal 0 0 -1
    outer loop
      vertex 22.174999997019768 2.8 1.25
      vertex 22.174999997019768 0 1.25
      vertex 21.350000001490116 0 1.25
    endloop
  endfacet
  facet normal -0.7028343499645173 0 -0.7113535523984922
    outer loop
      vertex 23.009999997913837 2.8 0.42499999701976776
      vertex 23.009999997913837 0 0.42499999701976776
      vertex 22.174999997019768 0 1.25
    endloop
  endfacet
  facet normal 0 0 -1
    outer loop
      vertex 21.350000001490116 2.8 1.25
      vertex 22.174999997019768 2.8 1.25
      vertex 21.350000001490116 0 1.25
    endloop
  endfacet
  facet normal -0.7028343499645172 0 -0.7113535523984923
    outer loop
      vertex 22.174999997019768 2.8 1.25
      vertex 23 2.8 0.43488023450465985
      vertex 22.174999997019768 0 1.25
    endloop
  endfacet
  facet normal -0.7028343499645308 7.97694127050499e-15 -0.7113535523984788
    outer loop
      vertex 23 2.8 0.43488023450465985
      vertex 23.009999997913837 2.8 0.42499999701976776
      vertex 22.174999997019768 0 1.25
    endloop
  endfacet
  facet normal -1 0 0
    outer loop
      vertex 23.009999997913837 2.8 0
      vertex 23.009999997913837 0 0
      vertex 23.009999997913837 0 0.42499999701976776
    endloop
  endfacet
  facet normal -1 0 0
    outer loop
      vertex 23.009999997913837 2.8 0.42499999701976776
      vertex 23.009999997913837 2.8 0
      vertex 23.009999997913837 0 0.42499999701976776
    endloop
  endfacet
  facet normal 0 -1 0
    outer loop
      vertex 23 2.8 0.43488023450465985
      vertex 23.009999997913837 2.8 0
      vertex 23.009999997913837 2.8 0.42499999701976776
    endloop
  endfacet
  facet normal 0 -1 0
    outer loop
      vertex 23 2.8 0.43488023450465985
      vertex 23 2.8 0
      vertex 23.009999997913837 2.8 0
    endloop
  endfacet
  facet normal 0 -1 0
    outer loop
      vertex 15.99 3.5999999999999996 3.2899999999999996
      vertex 15.99 3.5999999999999996 3.2182716049382734
      vertex 16.009999999999998 3.5999999999999996 3.2899999999999996
    endloop
  endfacet
  facet normal 0 -1 0
    outer loop
      vertex 16.009999999999998 3.5999999999999996 3.2999999970197678
      vertex 16.009999999999998 3.5999999999999996 3.2899999999999996
      vertex 23 3.5999999999999996 3.2999999970197678
    endloop
  endfacet
  facet normal 0 -1 0
    outer loop
      vertex 16.009999999999998 3.5999999999999996 3.2899999999999996
      vertex 15.99 3.5999999999999996 3.2182716049382734
      vertex 23 3.5999999999999996 3.2999999970197678
    endloop
  endfacet
  facet normal 0 1 0
    outer loop
      vertex 16.009999999999998 2.8 3.2999999970197678
      vertex 17.5 2.8 3.2999999970197678
      vertex 17.5 2.8 0
    endloop
  endfacet
  facet normal 0 -1 0
    outer loop
      vertex 15.99 3.5999999999999996 3.2182716049382734
      vertex 16.009996543163645 3.5999999999999996 0
      vertex 23 3.5999999999999996 3.2999999970197678
    endloop
  endfacet
  facet normal 0 1 0
    outer loop
      vertex 17.5 2.8 3.2999999970197678
      vertex 21.350000001490116 2.8 2.0499999970197678
      vertex 17.5 2.8 0
    endloop
  endfacet
  facet normal 0 1 0
    outer loop
      vertex 16.009999999999998 2.8 3.2999999970197678
      vertex 17.5 2.8 0
      vertex 16.009999999999998 2.8 0
    endloop
  endfacet
  facet normal 0 1 0
    outer loop
      vertex 17.5 2.8 0
      vertex 21.350000001490116 2.8 2.0499999970197678
      vertex 21.350000001490116 2.8 1.25
    endloop
  endfacet
  facet normal 0 -1 0
    outer loop
      vertex 16.009996543163645 3.5999999999999996 0
      vertex 23 3.5999999999999996 0
      vertex 23 3.5999999999999996 3.2999999970197678
    endloop
  endfacet
  facet normal -1 0 0
    outer loop
      vertex 23 2.8 3.2999999970197678
      vertex 23 3.5999999999999996 3.2999999970197678
      vertex 23 2.8 2.8651197625151084
    endloop
  endfacet
  facet normal -1 0 0
    outer loop
      vertex 23 3.5999999999999996 3.2999999970197678
      vertex 23 2.8 0.43488023450465985
      vertex 23 2.8 2.8651197625151084
    endloop
  endfacet
  facet normal 0 1 0
    outer loop
      vertex 21.350000001490116 2.8 2.0499999970197678
      vertex 22.174999997019768 2.8 2.0499999970197678
      vertex 21.350000001490116 2.8 1.25
    endloop
  endfacet
  facet normal 0 1 0
    outer loop
      vertex 23 2.8 2.8651197625151084
      vertex 23 2.8 0.43488023450465985
      vertex 22.174999997019768 2.8 2.0499999970197678
    endloop
  endfacet
  facet normal 0 1 0
    outer loop
      vertex 22.174999997019768 2.8 2.0499999970197678
      vertex 22.174999997019768 2.8 1.25
      vertex 21.350000001490116 2.8 1.25
    endloop
  endfacet
  facet normal 0 1 0
    outer loop
      vertex 22.174999997019768 2.8 2.0499999970197678
      vertex 23 2.8 0.43488023450465985
      vertex 22.174999997019768 2.8 1.25
    endloop
  endfacet
  facet normal -1 0 0
    outer loop
      vertex 23 3.5999999999999996 3.2999999970197678
      vertex 23 2.8 0
      vertex 23 2.8 0.43488023450465985
    endloop
  endfacet
  facet normal -1 0 0
    outer loop
      vertex 23 3.5999999999999996 3.2999999970197678
      vertex 23 3.5999999999999996 0
      vertex 23 2.8 0
    endloop
  endfacet
  facet normal 0 0 -1
    outer loop
      vertex 16.009999999999998 2 3.3
      vertex 16.009999999999998 0 3.3
      vertex 16.000000005960466 0 3.3
    endloop
  endfacet
  facet normal 0 0 -1
    outer loop
      vertex 16.000000005960466 2 3.3
      vertex 16.009999999999998 2 3.3
      vertex 16.000000005960466 0 3.3
    endloop
  endfacet
  facet normal -1 0 0
    outer loop
      vertex 16.009999999999998 2 3.2999999970197678
      vertex 16.009999999999998 0 3.3
      vertex 16.009999999999998 2 3.3
    endloop
  endfacet
  facet normal 0 -1 0
    outer loop
      vertex 15.2 3.5999999999999996 3.2899999999999996
      vertex 15.99 3.5999999999999996 3.2182716049382734
      vertex 15.99 3.5999999999999996 3.2899999999999996
    endloop
  endfacet
  facet normal 1 0 0
    outer loop
      vertex 15.2 3.5999999999999996 3.2899999999999996
      vertex 15.2 0 3.2899999999999996
      vertex 15.2 0 0
    endloop
  endfacet
  facet normal -1 0 0
    outer loop
      vertex 16.009999999999998 2 3.2999999970197678
      vertex 16.009999999999998 2.8 0
      vertex 16.009999999999998 0 3.3
    endloop
  endfacet
  facet normal 0 -1 0
    outer loop
      vertex 15.2 3.5999999999999996 3.2899999999999996
      vertex 15.2 3.5999999999999996 0
      vertex 15.99 3.5999999999999996 3.2182716049382734
    endloop
  endfacet
  facet normal -1 0 0
    outer loop
      vertex 16.009999999999998 2 3.2999999970197678
      vertex 16.009999999999998 2.8 3.2999999970197678
      vertex 16.009999999999998 2.8 0
    endloop
  endfacet
  facet normal -1 0 0
    outer loop
      vertex 16.009999999999998 2.8 0
      vertex 16.009999999999998 0 0
      vertex 16.009999999999998 0 3.3
    endloop
  endfacet
  facet normal 1 0 0
    outer loop
      vertex 15.2 3.5999999999999996 3.2899999999999996
      vertex 15.2 0 0
      vertex 15.2 3.5999999999999996 0
    endloop
  endfacet
  facet normal 0 -1 0
    outer loop
      vertex 15.99 3.5999999999999996 3.2182716049382734
      vertex 15.2 3.5999999999999996 0
      vertex 16.009996543163645 3.5999999999999996 0
    endloop
  endfacet
  facet normal 0 0 1
    outer loop
      vertex 0 6.315470053837925 5.5
      vertex 16.009999999999998 6.315470053837925 5.5
      vertex 0 8 5.5
    endloop
  endfacet
  facet normal -1 0 0
    outer loop
      vertex 0 6.315470053837925 5.5
      vertex 0 8 5.5
      vertex 0 8 0
    endloop
  endfacet
  facet normal -1 0 0
    outer loop
      vertex 0 6.315470053837925 5.5
      vertex 0 8 0
      vertex 0 6.315470053837925 3.2899999999999996
    endloop
  endfacet
  facet normal 0 0 1
    outer loop
      vertex 0 8 5.5
      vertex 16.009999999999998 6.315470053837925 5.5
      vertex 42 8 5.5
    endloop
  endfacet
  facet normal 0 1 0
    outer loop
      vertex 0 8 5.5
      vertex 42 8 5.5
      vertex 0 8 0
    endloop
  endfacet
  facet normal -1 0 0
    outer loop
      vertex 0 6.315470053837925 3.2899999999999996
      vertex 0 0 0
      vertex 0 0 3.2899999999999996
    endloop
  endfacet
  facet normal 0 0 -1
    outer loop
      vertex 15.2 3.5999999999999996 0
      vertex 15.2 0 0
      vertex 0 0 0
    endloop
  endfacet
  facet normal 0 0 -1
    outer loop
      vertex 0 8 0
      vertex 15.2 3.5999999999999996 0
      vertex 0 0 0
    endloop
  endfacet
  facet normal 0 0 -1
    outer loop
      vertex 17.5 2.8 0
      vertex 17.5 0 0
      vertex 16.009999999999998 0 0
    endloop
  endfacet
  facet normal 0 0 -1
    outer loop
      vertex 16.009999999999998 2.8 0
      vertex 17.5 2.8 0
      vertex 16.009999999999998 0 0
    endloop
  endfacet
  facet normal -1 0 0
    outer loop
      vertex 0 6.315470053837925 3.2899999999999996
      vertex 0 8 0
      vertex 0 0 0
    endloop
  endfacet
  facet normal 0 0 -1
    outer loop
      vertex 0 8 0
      vertex 42 8 0
      vertex 15.2 3.5999999999999996 0
    endloop
  endfacet
  facet normal 0 0 1
    outer loop
      vertex 32.26 5.622649729251862 5.5
      vertex 32.26 0 5.5
      vertex 42 0 5.5
    endloop
  endfacet
  facet normal 1 0 0
    outer loop
      vertex 42 8 5.5
      vertex 42 0 5.5
      vertex 42 0 0
    endloop
  endfacet
  facet normal 0 0 1
    outer loop
      vertex 16.009999999999998 5.622649729251862 5.5
      vertex 32.26 5.622649729251862 5.5
      vertex 16.009999999999998 6.315470053837925 5.5
    endloop
  endfacet
  facet normal 0 0 1
    outer loop
      vertex 16.009999999999998 6.315470053837925 5.5
      vertex 32.26 5.622649729251862 5.5
      vertex 42 8 5.5
    endloop
  endfacet
  facet normal 0 0 1
    outer loop
      vertex 32.26 5.622649729251862 5.5
      vertex 42 0 5.5
      vertex 42 8 5.5
    endloop
  endfacet
  facet normal 0 0 -1
    outer loop
      vertex 23.009999997913837 2.8 0
      vertex 42 0 0
      vertex 23.009999997913837 0 0
    endloop
  endfacet
  facet normal 0 0 -1
    outer loop
      vertex 23 2.8 0
      vertex 23 3.5999999999999996 0
      vertex 23.009999997913837 2.8 0
    endloop
  endfacet
  facet normal 0 0 -1
    outer loop
      vertex 23.009999997913837 2.8 0
      vertex 42 8 0
      vertex 42 0 0
    endloop
  endfacet
  facet normal 0 1 0
    outer loop
      vertex 0 8 0
      vertex 42 8 5.5
      vertex 42 8 0
    endloop
  endfacet
  facet normal 0 0 -1
    outer loop
      vertex 15.2 3.5999999999999996 0
      vertex 42 8 0
      vertex 16.009996543163645 3.5999999999999996 0
    endloop
  endfacet
  facet normal 0 0 -1
    outer loop
      vertex 23.009999997913837 2.8 0
      vertex 23 3.5999999999999996 0
      vertex 42 8 0
    endloop
  endfacet
  facet normal 0 0 -1
    outer loop
      vertex 16.009996543163645 3.5999999999999996 0
      vertex 42 8 0
      vertex 23 3.5999999999999996 0
    endloop
  endfacet
  facet normal 1 0 0
    outer loop
      vertex 42 8 5.5
      vertex 42 0 0
      vertex 42 8 0
    endloop
  endfacet
  facet normal 0 -1 0
    outer loop
      vertex 16.000000005960466 0 3.3
      vertex 16.009999999999998 0 3.3
      vertex 17 0 3.7999999970197678
    endloop
  endfacet
  facet normal 0 -1 0
    outer loop
      vertex 17.5 0 3.2999999970197678
      vertex 17 0 3.7999999970197678
      vertex 16.009999999999998 0 3.3
    endloop
  endfacet
  facet normal 0 -1 0
    outer loop
      vertex 17.5 0 3.7999999970197678
      vertex 17 0 3.7999999970197678
      vertex 17.5 0 3.2999999970197678
    endloop
  endfacet
  facet normal 0 -1 0
    outer loop
      vertex 17.5 0 3.2999999970197678
      vertex 16.009999999999998 0 3.3
      vertex 21.350000001490116 0 2.0499999970197678
    endloop
  endfacet
  facet normal 0 -1 0
    outer loop
      vertex 15.2 0 3.2899999999999996
      vertex 0 0 3.2899999999999996
      vertex 0 0 0
    endloop
  endfacet
  facet normal 0 -1 0
    outer loop
      vertex 15.2 0 3.2899999999999996
      vertex 0 0 0
      vertex 15.2 0 0
    endloop
  endfacet
  facet normal 0 -1 0
    outer loop
      vertex 21.350000001490116 0 2.0499999970197678
      vertex 16.009999999999998 0 3.3
      vertex 17.5 0 0
    endloop
  endfacet
  facet normal 0 -1 0
    outer loop
      vertex 16.009999999999998 0 3.3
      vertex 16.009999999999998 0 0
      vertex 17.5 0 0
    endloop
  endfacet
  facet normal 0 -1 0
    outer loop
      vertex 21.350000001490116 0 2.0499999970197678
      vertex 17.5 0 0
      vertex 21.350000001490116 0 1.25
    endloop
  endfacet
  facet normal 0 -1 0
    outer loop
      vertex 32.26 0 3.2999999970197678
      vertex 23.009999997913837 0 3.2999999970197678
      vertex 23.009999997913837 0 2.875
    endloop
  endfacet
  facet normal 0 -1 0
    outer loop
      vertex 32.26 0 5.5
      vertex 32.26 0 3.2999999970197678
      vertex 42 0 0
    endloop
  endfacet
  facet normal 0 -1 0
    outer loop
      vertex 42 0 5.5
      vertex 32.26 0 5.5
      vertex 42 0 0
    endloop
  endfacet
  facet normal 0 -1 0
    outer loop
      vertex 21.350000001490116 0 2.0499999970197678
      vertex 21.350000001490116 0 1.25
      vertex 22.174999997019768 0 2.0499999970197678
    endloop
  endfacet
  facet normal 0 -1 0
    outer loop
      vertex 22.174999997019768 0 2.0499999970197678
      vertex 21.350000001490116 0 1.25
      vertex 22.174999997019768 0 1.25
    endloop
  endfacet
  facet normal 0 -1 0
    outer loop
      vertex 22.174999997019768 0 2.0499999970197678
      vertex 42 0 0
      vertex 23.009999997913837 0 2.875
    endloop
  endfacet
  facet normal 0 -1 0
    outer loop
      vertex 22.174999997019768 0 2.0499999970197678
      vertex 22.174999997019768 0 1.25
      vertex 42 0 0
    endloop
  endfacet
  facet normal 0 -1 0
    outer loop
      vertex 23.009999997913837 0 0.42499999701976776
      vertex 42 0 0
      vertex 22.174999997019768 0 1.25
    endloop
  endfacet
  facet normal 0 -1 0
    outer loop
      vertex 23.009999997913837 0 0
      vertex 42 0 0
      vertex 23.009999997913837 0 0.42499999701976776
    endloop
  endfacet
  facet normal 0 -1 0
    outer loop
      vertex 32.26 0 3.2999999970197678
      vertex 23.009999997913837 0 2.875
      vertex 42 0 0
    endloop
  endfacet
endsolid OpenSCAD_Model
